<svg width="91" height="91" viewBox="0 0 91 91" fill="none" xmlns="http://www.w3.org/2000/svg">
<path d="M45.0999 9.4C46.2999 9.4 47.4999 8.9 48.3999 8C49.2999 7.1 49.7999 5.9 49.7999 4.7C49.7999 3.5 49.2999 2.3 48.3999 1.4C47.4999 0.5 46.2999 0 45.0999 0C43.8999 0 42.6999 0.5 41.7999 1.4C40.8999 2.3 40.3999 3.5 40.3999 4.7C40.3999 5.9 40.8999 7.1 41.7999 8C42.6999 8.9 43.8999 9.4 45.0999 9.4Z" fill="#357EFC"/>
<path d="M82.4001 61.3C80.2001 60 77.3001 60.8 76.0001 63C74.7001 65.2 75.5001 68.1 77.7001 69.4C78.4001 69.8 79.2001 70 80.0001 70C81.6001 70 83.2001 69.2 84.0001 67.7C85.4001 65.5 84.7001 62.6 82.4001 61.3Z" fill="#357EFC"/>
<path d="M9.3 45.3C9.3 42.7 7.2 40.7 4.6 40.7C2 40.7 0 42.8 0 45.4C0 48 2.1 50 4.6 50C7.3 49.9 9.4 47.9 9.3 45.3Z" fill="#357EFC"/>
<path d="M85.4999 40.5C82.8999 40.5 80.8999 42.6 80.8999 45.1C80.8999 47.7 82.9999 49.7 85.4999 49.7C88.0999 49.7 90.0999 47.6 90.0999 45C90.1999 42.6 88.0999 40.5 85.4999 40.5Z" fill="#357EFC"/>
<path d="M12.4001 21.1C10.2001 19.8 7.30015 20.6 6.00015 22.8C4.70015 25 5.50015 27.9 7.70015 29.2C8.40015 29.6 9.20015 29.8 10.0001 29.8C11.6001 29.8 13.2001 29 14.0001 27.5C15.4001 25.2 14.6001 22.3 12.4001 21.1Z" fill="#357EFC"/>
<path d="M7.79976 61.5C5.59976 62.8 4.79976 65.6 6.09976 67.9C6.99976 69.4 8.49976 70.2 10.0998 70.2C10.8998 70.2 11.6998 70 12.3998 69.6C14.5998 68.3 15.3998 65.5 14.0998 63.2C12.8998 60.9 9.99976 60.2 7.79976 61.5Z" fill="#357EFC"/>
<path d="M45.2001 81C42.6001 81 40.6001 83.1 40.6001 85.6C40.6001 88.2 42.7001 90.2 45.3001 90.2C47.9001 90.2 49.9001 88.1 49.9001 85.5C49.8001 83 47.7001 80.9 45.2001 81Z" fill="#357EFC"/>
<path d="M24.7999 14.9C25.5999 14.9 26.3999 14.7 27.0999 14.3C29.2999 13 30.0999 10.2 28.7999 7.90001C27.4999 5.70001 24.6999 4.90001 22.3999 6.20001C20.1999 7.50001 19.3999 10.3 20.6999 12.6C21.5999 14.1 23.1999 14.9 24.7999 14.9Z" fill="#357EFC"/>
<path d="M27.3001 76.2C25.1001 74.9 22.2 75.7 20.9 77.9C19.6 80.1 20.4001 83 22.6001 84.3C23.3001 84.7 24.1 84.9 24.9 84.9C26.5 84.9 28.1 84.1 28.9001 82.6C30.3 80.3 29.5001 77.5 27.3001 76.2Z" fill="#357EFC"/>
<path d="M63 76.1C60.8 77.4 60 80.2 61.3 82.5C62.2 84 63.7 84.8 65.3 84.8C66.1 84.8 66.9 84.6 67.6 84.2C69.8 82.9 70.6 80.1 69.3 77.8C68.1 75.6 65.2 74.9 63 76.1Z" fill="#357EFC"/>
<path d="M80.1001 29.6C80.9001 29.6 81.7002 29.4 82.4001 29C84.6002 27.7 85.4001 24.9 84.1001 22.6C82.8001 20.4 80.0001 19.6 77.7001 20.9C75.5001 22.2 74.7001 25 76.0001 27.3C76.9001 28.8 78.5001 29.6 80.1001 29.6Z" fill="#357EFC"/>
<path d="M63.0001 14.2C63.7001 14.6 64.5001 14.8 65.3001 14.8C66.9001 14.8 68.5001 14 69.3001 12.5C70.6001 10.3 69.8001 7.40001 67.6001 6.20001C65.4001 4.90001 62.5001 5.70001 61.3001 7.90001C60.0001 10.1 60.7001 12.9 63.0001 14.2Z" fill="#357EFC"/>
</svg>
