<svg width="48" height="46" viewBox="0 0 48 46" fill="none" xmlns="http://www.w3.org/2000/svg">
<path d="M34 43C34 43.6 33.6 44 33 44H3C2.4 44 2 43.6 2 43V22C2 21.4 2.4 21 3 21H33C33.6 21 34 21.4 34 22V26H36V22C36 20.3 34.7 19 33 19H30V16.5C30 15.7 29.3 15 28.5 15H27V9C27 4 23 0 18 0C13 0 9 4 9 9V15H7.5C6.7 15 6 15.7 6 16.5V19H3C1.3 19 0 20.3 0 22V43C0 44.7 1.3 46 3 46H33C34.7 46 36 44.7 36 43V39H34V43ZM28 19H24V17H28V19ZM11 9C11 5.1 14.1 2 18 2C21.9 2 25 5.1 25 9V15H23.5C22.7 15 22 15.7 22 16.5V19H14V16.5C14 15.7 13.3 15 12.5 15H11V9ZM8 17H12V19H8V17Z" fill="#357EFC"/>
<path d="M5 25.5V30H7V26H11V24H6.5C5.7 24 5 24.7 5 25.5Z" fill="#357EFC"/>
<path d="M42 26C39 26 36.6 28.2 36.1 31H22V37H24V33H26V35H28V33H36.1C36.6 35.8 39 38 42 38C45.3 38 48 35.3 48 32C48 28.7 45.3 26 42 26ZM42 36C39.8 36 38 34.2 38 32C38 29.8 39.8 28 42 28C44.2 28 46 29.8 46 32C46 34.2 44.2 36 42 36Z" fill="#357EFC"/>
</svg>
