<svg width="22" height="38" viewBox="0 0 22 38" fill="none" xmlns="http://www.w3.org/2000/svg">
<path d="M19.136 3.64282H18.4978C18.5865 3.88149 18.634 4.13306 18.6384 4.38713L19.2149 34.047C19.2257 34.6519 18.9921 35.2363 18.5651 35.6721C18.1381 36.108 17.5527 36.3598 16.9371 36.3723L5.74438 36.582C5.93444 36.9688 6.23155 37.2951 6.60168 37.5236C6.9718 37.752 7.39996 37.8734 7.83708 37.8739H19.136C19.753 37.8739 20.3447 37.6331 20.781 37.2044C21.2172 36.7758 21.4623 36.1945 21.4623 35.5883V5.92542C21.4615 5.31976 21.2161 4.73918 20.7799 4.3112C20.3437 3.88321 19.7525 3.64282 19.136 3.64282Z" fill="#357EFC"/>
<path d="M5.51617 35.1035L4.86985 35.1492C4.31302 35.1899 3.76005 35.031 3.31323 34.7021C3.41062 35.236 3.69809 35.7184 4.12427 36.0632C4.55045 36.408 5.08756 36.5927 5.63957 36.5842H5.74071C5.58819 36.2744 5.50934 35.9346 5.5101 35.5905L5.51617 35.1035Z" fill="#357EFC"/>
<path d="M16.2767 4.76683H16.5802C17.096 4.76683 17.5269 4.42797 17.5744 3.98476L17.6098 3.64292H18.4979C18.3301 3.19841 18.0258 2.81615 17.6271 2.54909C17.2285 2.28202 16.7551 2.14337 16.2727 2.15232H16.0754C16.0835 2.20599 16.0896 2.25965 16.0936 2.3143L16.2767 4.76683Z" fill="#357EFC"/>
<path d="M19.217 34.047L18.6384 4.38713C18.6334 4.13295 18.5852 3.88138 18.4958 3.64282H17.6077L17.5723 3.98467C17.5248 4.42787 17.0939 4.76673 16.5781 4.76673H16.2746L18.2844 31.9025C18.3281 32.5058 18.1267 33.1016 17.7242 33.5592C17.3217 34.0169 16.751 34.2991 16.1371 34.3441L5.51685 35.1033V35.5903C5.51608 35.9344 5.59494 36.2742 5.74746 36.584L16.9402 36.3743C17.556 36.3615 18.1414 36.1093 18.5682 35.6731C18.9951 35.2368 19.2283 34.652 19.217 34.047Z" fill="#357EFC"/>
<path d="M2.70132 4.68637C2.69049 4.08067 2.92485 3.49553 3.3529 3.05951C3.78096 2.6235 4.36768 2.37227 4.98417 2.36104L6.50943 2.33222L6.55191 2.67307C6.60754 3.11528 7.0455 3.44719 7.56336 3.43725L13.7474 3.32098C14.2632 3.31104 14.688 2.96423 14.7254 2.52004L14.7548 2.17819L16.0838 2.15335C15.9985 1.58283 15.6969 1.06506 15.2394 0.703845C14.7819 0.342631 14.2023 0.16467 13.6169 0.205639L12.0997 0.313955L12.0896 0.657785C12.0754 1.10298 11.6709 1.47165 11.156 1.50842L4.98619 1.94963C4.47136 1.9864 4.01621 1.67835 3.93731 1.24011L3.87562 0.90125L2.35338 1.01056C1.73948 1.05558 1.16877 1.33783 0.766282 1.79548C0.363793 2.25313 0.162347 2.84886 0.206077 3.45215L2.38474 33.0385C2.40802 33.3657 2.50305 33.6842 2.66331 33.972C2.82358 34.2598 3.04529 34.5102 3.31325 34.706C3.29266 34.5884 3.28082 34.4695 3.27785 34.3502L2.70132 4.68637Z" fill="#357EFC"/>
<path d="M4.8698 35.1491L5.51612 35.1034V5.92548C5.51612 5.31931 5.76122 4.73796 6.19749 4.30933C6.63376 3.8807 7.22548 3.6399 7.84246 3.6399H9.36874L9.40414 3.98174C9.45168 4.42495 9.88255 4.76381 10.3984 4.76381H16.28L16.0979 2.31228C16.0979 2.25762 16.0878 2.20396 16.0797 2.1503L14.7507 2.17514L14.7213 2.51699C14.6839 2.96118 14.2591 3.31197 13.7433 3.31793L7.55925 3.4342C7.04341 3.44414 6.60545 3.11223 6.5478 2.67002L6.50532 2.32917L4.98005 2.35799C4.36445 2.37052 3.77902 2.62231 3.35206 3.05819C2.92509 3.49407 2.69142 4.07847 2.70227 4.68332L3.27879 34.3432C3.28177 34.4625 3.2936 34.5814 3.31419 34.6989C3.76032 35.0288 4.31294 35.1887 4.8698 35.1491Z" fill="#357EFC"/>
<path d="M12.3935 14.9039H9.74634L9.32199 16.1568H7.51344L10.0798 9.06406H12.0803L14.6466 16.1568H12.8178L12.3935 14.9039ZM11.9489 13.5703L11.0699 10.9736L10.201 13.5703H11.9489ZM11.0231 28.8231H13.2864V30.1568H9.29543V23.0641H11.0231V28.8231Z" fill="#357EFC"/>
</svg>
